<svg width="17" height="9" viewBox="0 0 17 9" fill="none" xmlns="http://www.w3.org/2000/svg">
<path fill-rule="evenodd" clip-rule="evenodd" d="M13.5 0.998606C13.5 0.999291 13.5 1 15 1C16.5 1 16.5 1.00076 16.5 1.00154L16.5 1.00324L16.5 1.00709L16.4999 1.01662L16.4996 1.04284C16.4993 1.06345 16.4987 1.0903 16.4976 1.12297C16.4954 1.18827 16.4913 1.27711 16.4835 1.38617C16.468 1.60378 16.4376 1.90486 16.378 2.26222C16.2601 2.96984 16.0214 3.93625 15.5291 4.92082C15.0339 5.91127 14.2675 6.94734 13.0899 7.73245C11.9028 8.52382 10.3875 9 8.5 9C6.61252 9 5.09719 8.52382 3.91014 7.73245C2.73247 6.94734 1.96608 5.91126 1.47086 4.92082C0.978574 3.93625 0.739909 2.96984 0.621974 2.26222C0.562413 1.90486 0.532053 1.60378 0.516509 1.38617C0.508719 1.27711 0.504597 1.18827 0.502421 1.12297C0.501332 1.0903 0.500727 1.06345 0.500396 1.04284L0.500074 1.01661L0.500016 1.00709L0.500005 1.00324L0.500003 1.00154C0.500002 1.00076 0.500002 0.999999 2 0.999999C3.5 0.999999 3.5 0.99929 3.5 0.998606L3.5 0.997354L3.49999 0.995277L3.5 0.994454C3.50007 0.998438 3.50026 1.00809 3.50076 1.02302C3.50175 1.05294 3.50398 1.10375 3.50889 1.17243C3.51873 1.31028 3.53915 1.51701 3.58115 1.76903C3.66634 2.28016 3.83393 2.93875 4.15414 3.57918C4.47142 4.21373 4.92378 4.80266 5.57424 5.2363C6.21531 5.66368 7.13748 6 8.5 6C9.86252 6 10.7847 5.66368 11.4258 5.2363C12.0762 4.80266 12.5286 4.21373 12.8459 3.57918C13.1661 2.93875 13.3337 2.28016 13.4188 1.76903C13.4609 1.51701 13.4813 1.31028 13.4911 1.17243C13.496 1.10375 13.4982 1.05294 13.4992 1.02303C13.4997 1.00809 13.4999 0.998439 13.5 0.994455C13.5 0.992466 13.5 0.991901 13.5 0.992807L13.5 0.995278L13.5 0.997355L13.5 0.998606ZM3.49998 0.992806L3.5 0.994454Z" fill="#606470"/>
</svg>
