<svg width="44" height="44" viewBox="0 0 44 44" fill="none" xmlns="http://www.w3.org/2000/svg">
<g clip-path="url(#clip0_446_18)">
<path d="M29.5557 24.8149C28.4537 24.8149 27.3716 24.6426 26.3462 24.3037C25.8437 24.1323 25.2261 24.2896 24.9194 24.6045L22.8955 26.1324C20.5483 24.8794 19.1025 23.4341 17.8667 21.1045L19.3496 19.1334C19.7349 18.7486 19.873 18.1866 19.7075 17.6592C19.3672 16.6285 19.1943 15.5469 19.1943 14.4444C19.1943 13.648 18.5464 13 17.75 13H14.4444C13.648 13 13 13.648 13 14.4444C13 23.5733 20.4268 31 29.5557 31C30.3521 31 31 30.352 31 29.5556V26.2593C31 25.4629 30.352 24.8149 29.5557 24.8149Z" fill="#E4ECF1"/>
</g>
<defs>
<clipPath id="clip0_446_18">
<rect width="18" height="18" fill="white" transform="translate(13 13)"/>
</clipPath>
</defs>
</svg>
