<svg width="44" height="44" viewBox="0 0 44 44" fill="none" xmlns="http://www.w3.org/2000/svg">
<g clip-path="url(#clip0_446_16)">
<path d="M16.735 15.625C16.735 16.6608 15.9025 17.5 14.875 17.5C13.8475 17.5 13.015 16.6608 13.015 15.625C13.015 14.59 13.8475 13.75 14.875 13.75C15.9025 13.75 16.735 14.59 16.735 15.625ZM16.75 19H13V31H16.75V19ZM22.7365 19H19.0105V31H22.7372V24.7007C22.7372 21.1982 27.259 20.9117 27.259 24.7007V31H31V23.4018C31 17.4918 24.3085 17.707 22.7365 20.6162V19Z" fill="#E4ECF1"/>
</g>
<defs>
<clipPath id="clip0_446_16">
<rect width="18" height="18" fill="white" transform="translate(13 13)"/>
</clipPath>
</defs>
</svg>
