<svg width="584" height="617" viewBox="0 0 584 617" fill="none" xmlns="http://www.w3.org/2000/svg">
<path fill-rule="evenodd" clip-rule="evenodd" d="M3.46744 13.2142C7.87308 5.2653 16.2454 0.333374 25.3335 0.333374H558.667C567.755 0.333374 576.127 5.2653 580.533 13.2142C584.939 21.163 584.683 30.8766 579.867 38.5833L417 299.17V592C417 600.664 412.514 608.711 405.143 613.266C397.773 617.821 388.57 618.236 380.82 614.361L180.82 514.361C172.35 510.126 167 501.469 167 492V299.17L4.13355 38.5833C-0.68315 30.8766 -0.938195 21.163 3.46744 13.2142ZM70.4397 50.3334L213.2 278.75C215.683 282.723 217 287.315 217 292V476.549L367 551.549V292C367 287.315 368.317 282.723 370.8 278.75L513.561 50.3334H70.4397Z" fill="black"/>
</svg>
