<svg width="25" height="24" viewBox="0 0 25 24" fill="none" xmlns="http://www.w3.org/2000/svg">
<path fill-rule="evenodd" clip-rule="evenodd" d="M9.42857 16.2C12.9282 16.2 15.8571 13.2963 15.8571 9.6C15.8571 5.90373 12.9282 3 9.42857 3C5.9289 3 3 5.90373 3 9.6C3 13.2963 5.9289 16.2 9.42857 16.2ZM9.42857 19.2C14.6358 19.2 18.8571 14.9019 18.8571 9.6C18.8571 4.29807 14.6358 0 9.42857 0C4.22132 0 0 4.29807 0 9.6C0 14.9019 4.22132 19.2 9.42857 19.2Z" fill="#606470"/>
<path fill-rule="evenodd" clip-rule="evenodd" d="M22.0003 23.9999L13.3515 15.1938L15.4536 13.0535L24.1024 21.8595L22.0003 23.9999Z" fill="#606470"/>
</svg>
